<?xml version="1.0" encoding="iso-8859-1"?>
<!-- Generator: Adobe Illustrator 18.0.0, SVG Export Plug-In . SVG Version: 6.00 Build 0)  -->
<!DOCTYPE svg PUBLIC "-//W3C//DTD SVG 1.1//EN" "http://www.w3.org/Graphics/SVG/1.1/DTD/svg11.dtd">
<svg version="1.1" id="Capa_1" xmlns="http://www.w3.org/2000/svg" xmlns:xlink="http://www.w3.org/1999/xlink" x="0px" y="0px"
	 viewBox="0 0 287.613 287.613" style="enable-background:new 0 0 287.613 287.613;" xml:space="preserve">
<g>
	<path d="M37.885,106.289H9.282c-5.126,0-9.282,4.156-9.282,9.282v100.187c0,5.127,4.156,9.282,9.282,9.282h28.603
		c5.126,0,9.282-4.156,9.282-9.282V115.571C47.167,110.444,43.011,106.289,37.885,106.289z"/>
	<g>
		<path d="M270.693,100.563h-85.015c0.542,6.441-2.691,14.145-6.596,18.519c-1.415,1.586-2.969,2.852-4.619,3.822
			c-0.963,0.567-0.596,2.026,0.521,2.026h3.914c1.779,0,3.508,0.837,4.452,2.345c2.047,3.27-0.424,7.397-4.132,7.397h-26.327
			c-0.918,0-1.815,0.272-2.579,0.781l-0.004,0.003c-3.619,2.367-5.859,6.398-5.859,10.838c0,4.44,2.24,8.47,5.859,10.837
			l0.007,0.004c0.784,0.518,1.703,0.794,2.643,0.794h32.261c3.278,0,5.628,3.236,4.646,6.31c-0.671,2.1-2.746,3.432-4.951,3.432
			c-6.355,0-26.341,0-31.916,0c-0.953,0-1.883,0.276-2.682,0.794l-0.007,0.004c-3.619,2.367-5.859,6.398-5.859,10.838
			c0,4.472,2.272,8.528,5.937,10.888c0.76,0.489,1.654,0.733,2.558,0.733l22.274,0c2.885,0,5.414,2.689,4.77,5.867
			c-0.464,2.289-2.578,3.875-4.913,3.875h-22.029c-0.969,0-1.918,0.281-2.731,0.809l-0.007,0.005
			c-3.619,2.367-5.859,6.398-5.859,10.838c0,6.163,4.417,11.508,10.404,12.717h29.923c9.091,0,16.95-7.433,16.93-16.524
			c-0.013-5.911-3.147-11.077-7.832-13.977h4.916c9.091,0,16.949-7.433,16.93-16.524c-0.013-5.912-3.148-11.077-7.833-13.977h3.268
			c9.091,0,16.949-7.433,16.93-16.524c-0.013-5.912-3.148-11.077-7.833-13.977h50.874c9,0,16.317-7.213,16.484-16.173
			C287.783,108.125,279.934,100.563,270.693,100.563z"/>
		<path d="M132.068,103.921c-1.725-1.54-1.969-4.285-0.347-6.103c1.589-1.781,4.319-1.938,6.103-0.347l16.834,15.027
			c5.652,5.045,14.153,4.407,19.05-1.079c4.975-5.574,4.475-14.093-1.079-19.05l-29.529-26.361
			c-5.394-4.816-13.573-4.538-18.628,0.629l-0.128,0.125c-33.117,31.149-37.055,34.72-44.872,42.709
			c-10.951,10.076-15.707,19.258-15.707,32.366v39.536c0,24.116,19.55,43.666,43.666,43.666h31.179
			c-2.51-3.701-3.902-8.12-3.902-12.717c0-6.391,2.642-12.304,7.099-16.508c-4.457-4.204-7.099-10.116-7.099-16.507
			c0-6.391,2.642-12.304,7.099-16.508c-4.457-4.204-7.099-10.116-7.099-16.507c0-9.248,4.397-17.747,14.093-21.013
			c0.447-0.15,1.415-0.352,1.852-0.352h4.535c0.951,0,1.241-1.294,0.375-1.689c-1.819-0.828-3.585-1.882-5.254-3.147
			C149.191,119.248,150.472,120.35,132.068,103.921z"/>
	</g>
</g>
<g>
</g>
<g>
</g>
<g>
</g>
<g>
</g>
<g>
</g>
<g>
</g>
<g>
</g>
<g>
</g>
<g>
</g>
<g>
</g>
<g>
</g>
<g>
</g>
<g>
</g>
<g>
</g>
<g>
</g>
</svg>
